<?xml version="1.0" standalone="no"?>
<!DOCTYPE svg PUBLIC "-//W3C//DTD SVG 1.1//EN" "http://www.w3.org/Graphics/SVG/1.1/DTD/svg11.dtd">
<svg t="1712502947865" class="icon" viewBox="0 0 1049 1024" version="1.1" xmlns="http://www.w3.org/2000/svg" p-id="10849" xmlns:xlink="http://www.w3.org/1999/xlink" width="204.8828125" height="200">
    <path fill="white" d="M463.278798 1024H63.252087c-34.190317 0-63.252087-29.06177-63.252087-63.252087V63.252087C0 29.06177 27.352254 0 63.252087 0h400.026711c34.190317 0 63.252087 29.06177 63.252087 63.252087s-27.352254 63.252087-63.252087 63.252087H124.794658v770.991652h338.48414c34.190317 0 63.252087 29.06177 63.252087 63.252087s-29.06177 63.252087-63.252087 63.252087z" p-id="10850">
    </path>
    <path fill="white" d="M1032.547579 471.826377L704.320534 136.761269c-35.899833-37.609349-99.15192-11.966611-99.15192 41.02838V256.427379c0 32.480801-25.642738 58.123539-58.123539 58.123539H278.651085c-32.480801 0-58.123539 25.642738-58.123539 58.123539v278.651086c0 32.480801 25.642738 58.123539 58.123539 58.123539H547.045075c32.480801 0 58.123539 25.642738 58.123539 58.123539v78.63773c0 51.285476 63.252087 76.928214 99.15192 41.02838l328.227045-333.355592c22.223706-23.933222 22.223706-59.833055 0-82.056762z" p-id="10851">
    </path>
</svg>