<svg  width="36rem" height="36rem"  xmlns="http://www.w3.org/2000/svg" name="zi_floppyDisk" viewBox="0 0 2000 2000"><path d="M1734 600l-334-334q-55-55-135-55H258q-79 0-135 55-56 56-56 135v525l-56 44v829q0 79 56 134 55 56 135 56h1397q79 0 135-56 55-55 55-134V735q0-80-55-135zm-159 1199H225q-8 0-16-8-7-8-7-16V969l56-44V425q0-8 8-16t16-8h124v413q0 40 28 68 28 27 67 27h685q40 0 67-27 28-28 28-68V417l310 310q8 8 8 16v1032q0 8-8 16t-16 8zm-675-794q-143 0-246 103t-103 246q0 143 103 246t246 103q143 0 246-103t103-246q0-143-103-246t-246-103zm191-604v318H597V401h494zM900 1513q-67 0-113-46t-46-113q0-68 46-113 46-46 113-46 68 0 113 46 46 45 46 113 0 67-46 113-45 46-113 46z"/></svg>