<?xml version="1.0" standalone="no"?><!DOCTYPE svg PUBLIC "-//W3C//DTD SVG 1.1//EN" "http://www.w3.org/Graphics/SVG/1.1/DTD/svg11.dtd"><svg t="1712502889097" class="icon" viewBox="0 0 1024 1024" version="1.1" xmlns="http://www.w3.org/2000/svg" p-id="9854" xmlns:xlink="http://www.w3.org/1999/xlink" width="200" height="200"><path d="M512 65.983C266.048 65.983 65.983 266.048 65.983 512S266.048 958.017 512 958.017 958.017 757.952 958.017 512 757.952 65.983 512 65.983z m32 670.018c0 17.696-14.303 32-32 32s-32-14.303-32-32V448c0-17.696 14.303-32 32-32 17.696 0 32 14.303 32 32v288z m-32-384c-26.496 0-48-21.537-48-48C464 277.472 485.504 256 512 256s48 21.472 48 48c0 26.464-21.504 48-48 48z" p-id="9855"></path></svg>